<?xml version="1.0" standalone="no"?>
<!DOCTYPE svg PUBLIC "-//W3C//DTD SVG 20010904//EN"
 "http://www.w3.org/TR/2001/REC-SVG-20010904/DTD/svg10.dtd">
<svg version="1.0" xmlns="http://www.w3.org/2000/svg"
 width="550.000000pt" height="550.000000pt" viewBox="0 0 550.000000 550.000000"
 preserveAspectRatio="xMidYMid meet">
<metadata>
Created by potrace 1.14, written by Peter Selinger 2001-2017
</metadata>
<g transform="translate(0.000000,550.000000) scale(0.100000,-0.100000)"
fill="#000000" stroke="none">
<path d="M0 2750 l0 -2750 2750 0 2750 0 0 2750 0 2750 -2750 0 -2750 0 0
-2750z m2483 997 c32 -15 57 -32 57 -41 0 -15 -38 -86 -46 -86 -3 0 -24 10
-47 22 -59 30 -155 31 -194 2 -18 -14 -29 -32 -31 -52 -4 -42 24 -59 141 -86
159 -38 192 -70 192 -187 0 -67 -3 -80 -27 -111 -15 -19 -44 -43 -64 -53 -83
-39 -235 -35 -321 8 -65 32 -71 45 -40 95 l27 41 47 -27 c42 -24 59 -27 136
-27 85 0 90 1 113 28 53 62 18 98 -119 126 -157 32 -199 69 -200 180 -1 134
86 205 243 198 55 -3 91 -11 133 -30z m-1595 -109 l3 -128 119 0 120 0 0 130
0 130 60 0 60 0 -2 -317 -3 -318 -55 0 -55 0 -3 128 -3 127 -119 0 -119 0 -3
-127 -3 -128 -55 0 -55 0 -3 318 -2 318 57 -3 58 -3 3 -127z m612 -188 l0
-321 -57 3 -58 3 -3 318 -2 317 60 0 60 0 0 -320z m560 265 l0 -55 -90 0 -90
0 -2 -262 -3 -263 -49 -3 c-32 -2 -52 1 -57 10 -5 7 -9 127 -9 266 l0 252 -84
0 c-93 0 -97 3 -88 73 l4 37 234 0 234 0 0 -55z m951 33 c5 -75 0 -86 -130
-287 -72 -113 -129 -207 -126 -209 2 -2 62 -5 132 -6 l128 -1 3 -58 3 -57
-208 2 -208 3 -3 42 c-4 51 -3 52 148 288 l121 190 -130 3 -131 3 0 54 0 55
200 0 200 0 1 -22z m-1933 -1272 c58 -21 95 -51 123 -99 22 -38 24 -56 27
-191 4 -168 -4 -215 -50 -270 -46 -56 -100 -80 -183 -80 -109 0 -187 51 -220
143 -17 51 -21 293 -5 351 11 41 49 95 81 118 60 42 155 53 227 28z m2185
-306 c64 -167 117 -310 117 -318 0 -10 -15 -12 -57 -10 l-58 3 -19 53 -19 52
-123 0 -123 0 -19 -52 -20 -53 -58 0 c-47 0 -58 3 -56 15 2 8 55 151 119 318
l117 303 40 -3 41 -3 118 -305z m847 195 l0 -65 35 0 35 0 0 -50 0 -50 -35 0
-36 0 3 -122 3 -123 33 -3 c32 -3 32 -3 32 -59 l0 -55 -65 4 c-55 3 -70 8 -93
31 -27 27 -27 30 -30 177 l-4 150 -24 0 c-22 0 -24 4 -24 50 0 47 2 50 25 50
24 0 25 2 25 65 l0 65 60 0 60 0 0 -65z m-2442 -82 c62 -46 67 -63 67 -213 0
-150 -5 -167 -67 -213 -37 -28 -130 -27 -169 2 l-29 22 0 -106 c0 -100 -1
-106 -22 -114 -13 -4 -40 -6 -60 -3 l-38 4 0 319 0 319 56 0 c46 0 57 -3 61
-19 5 -18 7 -18 46 6 50 28 114 27 155 -4z m435 16 c84 -23 135 -100 140 -214
l2 -60 -147 -3 c-82 -1 -148 -7 -148 -12 0 -5 10 -21 23 -35 30 -35 96 -44
152 -20 l40 16 28 -31 29 -32 -23 -24 c-71 -76 -257 -61 -318 24 -67 95 -47
301 37 360 52 38 120 49 185 31z m577 -17 c14 -10 35 -38 48 -62 20 -41 22
-58 22 -212 l0 -168 -54 0 -54 0 -4 156 c-3 150 -4 157 -27 175 -28 23 -89 25
-117 5 -17 -13 -20 -31 -24 -173 l-5 -158 -55 0 -55 0 0 225 0 225 58 3 c56 3
57 3 57 -24 l0 -27 23 21 c12 11 33 26 47 31 34 14 109 5 140 -17z m1908 -1
c62 -32 85 -78 90 -183 9 -184 -49 -258 -202 -258 -139 0 -194 56 -203 204 -9
149 35 229 142 257 46 12 128 3 173 -20z m-1010 -141 c2 -144 4 -156 23 -172
29 -25 94 -23 119 2 18 18 20 33 20 175 l0 156 58 -3 57 -3 0 -225 0 -225 -57
-3 c-57 -3 -58 -2 -58 23 l0 27 -31 -26 c-40 -34 -126 -37 -177 -6 -60 37 -72
81 -72 273 l0 168 58 -3 57 -3 3 -155z"/>
<path d="M1165 3630 c-3 -5 -1 -10 4 -10 6 0 11 5 11 10 0 6 -2 10 -4 10 -3 0
-8 -4 -11 -10z"/>
<path d="M810 3180 c0 -5 5 -10 11 -10 5 0 7 5 4 10 -3 6 -8 10 -11 10 -2 0
-4 -4 -4 -10z"/>
<path d="M2976 3195 c4 -8 11 -15 16 -15 6 0 5 6 -2 15 -7 8 -14 15 -16 15 -2
0 -1 -7 2 -15z"/>
<path d="M915 2337 l-35 -35 0 -139 c0 -152 6 -170 60 -198 37 -19 73 -19 110
0 54 28 60 46 60 197 0 137 0 138 -28 169 -23 26 -38 33 -80 37 -49 4 -54 2
-87 -31z"/>
<path d="M1116 1935 c4 -8 12 -15 20 -15 19 0 18 16 -2 24 -22 9 -24 8 -18 -9z"/>
<path d="M3091 2258 c-30 -82 -61 -171 -61 -179 0 -5 34 -9 76 -9 74 0 75 1
68 23 -17 57 -66 187 -70 187 -3 0 -8 -10 -13 -22z"/>
<path d="M1505 2188 c-11 -6 -23 -16 -27 -22 -10 -14 -10 -178 0 -193 27 -42
119 -34 141 13 14 32 14 136 0 167 -19 41 -74 58 -114 35z"/>
<path d="M1925 2190 c-3 -5 -2 -10 4 -10 5 0 13 5 16 10 3 6 2 10 -4 10 -5 0
-13 -4 -16 -10z"/>
<path d="M2004 2190 c-24 -9 -54 -47 -54 -67 0 -10 25 -13 96 -13 94 0 95 0
89 23 -16 53 -76 79 -131 57z"/>
<path d="M2587 2266 c-4 -10 -1 -13 8 -9 8 3 12 9 9 14 -7 12 -11 11 -17 -5z"/>
<path d="M2655 2250 c-3 -5 -1 -10 4 -10 6 0 11 5 11 10 0 6 -2 10 -4 10 -3 0
-8 -4 -11 -10z"/>
<path d="M4455 2193 c-11 -3 -30 -14 -42 -26 -20 -18 -23 -30 -23 -97 0 -67 3
-79 23 -98 31 -29 99 -30 127 -2 17 17 20 33 20 100 0 67 -3 83 -20 100 -11
11 -24 20 -29 20 -5 0 -15 2 -23 4 -7 2 -22 1 -33 -1z"/>
</g>
</svg>
