<!DOCTYPE svg PUBLIC "-//W3C//DTD SVG 1.1//EN" "http://www.w3.org/Graphics/SVG/1.1/DTD/svg11.dtd">
<!-- Uploaded to: SVG Repo, www.svgrepo.com, Transformed by: SVG Repo Mixer Tools -->
<svg fill="#ffffff" height="800px" width="800px" version="1.1" id="Layer_1" xmlns="http://www.w3.org/2000/svg" xmlns:xlink="http://www.w3.org/1999/xlink" viewBox="0 0 330.002 330.002" xml:space="preserve" stroke="#ffffff">
<g id="SVGRepo_bgCarrier" stroke-width="0"/>
<g id="SVGRepo_tracerCarrier" stroke-linecap="round" stroke-linejoin="round"/>
<g id="SVGRepo_iconCarrier"> <g id="XMLID_86_"> <path id="XMLID_87_" d="M79.395,175.607c2.87,2.87,6.706,4.395,10.61,4.395c1.932,0,3.881-0.374,5.736-1.143 c5.605-2.321,9.26-7.791,9.26-13.858v-60h210c8.284,0,15-6.716,15-15s-6.716-15-15-15h-210v-60c0-6.066-3.654-11.536-9.26-13.858 C90.136-1.18,83.683,0.104,79.395,4.394l-75,75c-5.858,5.858-5.858,15.355,0,21.213L79.395,175.607z"/> <path id="XMLID_89_" d="M250.607,154.394c-4.29-4.291-10.742-5.574-16.347-3.252c-5.605,2.322-9.26,7.792-9.26,13.858v60h-210 c-8.284,0-15,6.716-15,15c0,8.284,6.716,15,15,15h210v60c0,6.067,3.654,11.537,9.26,13.858c1.855,0.769,3.805,1.143,5.736,1.143 c3.904,0,7.741-1.524,10.61-4.395l75-75c5.858-5.857,5.858-15.354,0-21.213L250.607,154.394z"/> </g> </g>
</svg>